<svg width="28" height="28" viewBox="0 0 28 28" fill="none" xmlns="http://www.w3.org/2000/svg">
<g clip-path="url(#clip0_108_69)">
<path d="M21.4375 0H6.5625C2.93813 0 0 2.93813 0 6.5625V21.4375C0 25.0619 2.93813 28 6.5625 28H21.4375C25.0619 28 28 25.0619 28 21.4375V6.5625C28 2.93813 25.0619 0 21.4375 0Z" fill="#F0DB4F"/>
<path d="M7.36223 23.3989L9.50489 22.1022C9.91832 22.8351 10.2944 23.4553 11.1964 23.4553C12.061 23.4553 12.6061 23.1171 12.6061 21.8015V12.8548H15.2374V21.8387C15.2374 24.564 13.6399 25.8045 11.3091 25.8045C9.20422 25.8045 7.98239 24.7144 7.36212 23.3987M16.6667 23.117L18.8091 21.8765C19.3731 22.7976 20.1062 23.4742 21.4029 23.4742C22.4933 23.4742 23.1885 22.929 23.1885 22.1772C23.1885 21.2751 22.4742 20.9555 21.2713 20.4294L20.6137 20.1473C18.7152 19.3393 17.4559 18.3243 17.4559 16.1816C17.4559 14.208 18.9596 12.7043 21.3091 12.7043C22.9819 12.7043 24.1848 13.2871 25.0493 14.8095L23.0006 16.1252C22.5494 15.317 22.0609 14.9975 21.3091 14.9975C20.5384 14.9975 20.0497 15.4862 20.0497 16.1252C20.0497 16.9145 20.5384 17.2341 21.6661 17.7229L22.3239 18.0048C24.5605 18.9634 25.8198 19.9406 25.8198 22.1396C25.8198 24.508 23.9591 25.8047 21.4594 25.8047C19.016 25.8047 17.4372 24.6395 16.6667 23.117Z" fill="#323330"/>
</g>
<defs>
<clipPath id="clip0_108_69">
<rect width="28" height="28" fill="white"/>
</clipPath>
</defs>
</svg>

