<svg width="32" height="32" viewBox="0 0 32 32" fill="none" xmlns="http://www.w3.org/2000/svg">
<g clip-path="url(#clip0_110_141)">
<path d="M24.5 0H7.5C3.35786 0 0 3.35786 0 7.5V24.5C0 28.6421 3.35786 32 7.5 32H24.5C28.6421 32 32 28.6421 32 24.5V7.5C32 3.35786 28.6421 0 24.5 0Z" fill="white"/>
<path fill-rule="evenodd" clip-rule="evenodd" d="M26.9807 9.78916C26.9887 9.81953 26.993 9.85091 26.993 9.88253V14.7824C26.993 14.8453 26.9766 14.907 26.9456 14.9614C26.9147 15.0157 26.87 15.0608 26.816 15.0923L22.7603 17.46V22.1532C22.7604 22.2157 22.7443 22.2772 22.7134 22.3316C22.6825 22.3859 22.6379 22.4313 22.5841 22.4632L14.1181 27.405C14.0988 27.4162 14.0776 27.4233 14.0565 27.4309C14.0485 27.4337 14.0411 27.4385 14.0328 27.4408C13.9736 27.4565 13.9113 27.4565 13.8521 27.4408C13.8425 27.438 13.8336 27.4327 13.8244 27.4292C13.805 27.422 13.7847 27.4158 13.7662 27.405L5.302 22.4632C5.2481 22.4316 5.20344 22.3865 5.1725 22.3323C5.14138 22.2777 5.12501 22.216 5.125 22.1532V7.45353C5.125 7.42128 5.12937 7.39003 5.13737 7.35978C5.13987 7.34941 5.14612 7.34003 5.14962 7.32978C5.15625 7.31103 5.16237 7.29191 5.17212 7.27441C5.17875 7.26278 5.18837 7.25341 5.19637 7.24278C5.20637 7.22841 5.21575 7.21366 5.22762 7.20116C5.23762 7.19091 5.251 7.18328 5.26237 7.17441C5.27512 7.16366 5.28663 7.15203 5.30113 7.14353H5.30162L9.53375 4.67266C9.58722 4.64145 9.64802 4.625 9.70994 4.625C9.77185 4.625 9.83265 4.64145 9.88612 4.67266L14.1185 7.14353H14.1194C14.1334 7.15253 14.1454 7.16366 14.1581 7.17391C14.1695 7.18291 14.1823 7.19091 14.1924 7.20078C14.2048 7.21366 14.2136 7.22841 14.2241 7.24278C14.2316 7.25341 14.2417 7.26278 14.2479 7.27441C14.258 7.29228 14.2638 7.31103 14.2709 7.32978C14.2744 7.34003 14.2805 7.34941 14.2831 7.36016C14.2913 7.39066 14.2954 7.42203 14.2955 7.45353V16.6348L17.8223 14.5757V9.88191C17.8223 9.85066 17.8266 9.81903 17.8346 9.78916C17.8378 9.77841 17.8434 9.76903 17.847 9.75878C17.854 9.74003 17.8601 9.72078 17.8699 9.70341C17.8765 9.69178 17.8861 9.68241 17.8936 9.67166C17.9043 9.65741 17.913 9.64266 17.9254 9.63016C17.9355 9.61991 17.9482 9.61228 17.9597 9.60328C17.9729 9.59266 17.9844 9.58103 17.9985 9.57253H17.999L22.2318 7.10153C22.2852 7.07026 22.346 7.05377 22.4079 7.05377C22.4698 7.05377 22.5306 7.07026 22.584 7.10153L26.8164 9.57253C26.8314 9.58153 26.8428 9.59253 26.856 9.60291C26.867 9.61178 26.8798 9.61991 26.8899 9.62966C26.9023 9.64266 26.911 9.65741 26.9216 9.67166C26.9295 9.68241 26.9393 9.69166 26.9454 9.70341C26.9555 9.72091 26.9613 9.74003 26.9683 9.75878C26.9722 9.76903 26.9781 9.77841 26.9807 9.78916ZM26.2875 14.5757V10.501L24.8064 11.3655L22.7603 12.5602V16.6348L26.2879 14.5757H26.2875ZM22.0551 21.9464V17.8692L20.0425 19.0348L14.2951 22.3609V26.4765L22.0551 21.9464ZM5.8305 8.07203V21.9464L13.5896 26.4762V22.3613L9.53613 20.035L9.53487 20.0342L9.533 20.0333C9.51937 20.0253 9.508 20.0137 9.49512 20.0038C9.48412 19.9949 9.47137 19.9878 9.46175 19.9779L9.46087 19.9767C9.44937 19.9654 9.44138 19.9517 9.43175 19.939C9.423 19.927 9.41237 19.9168 9.40537 19.9043L9.40487 19.9029C9.39687 19.8895 9.392 19.8734 9.38638 19.8583C9.38063 19.8449 9.37313 19.8324 9.36963 19.818V19.8175C9.36525 19.8007 9.36438 19.7828 9.3625 19.7653C9.36075 19.7519 9.35725 19.7385 9.35725 19.7252V10.1313L7.31163 8.93616L5.8305 8.07241V8.07203ZM9.7105 5.39516L6.18425 7.45366L9.70963 9.51191L13.2355 7.45316L9.70963 5.39528L9.7105 5.39516ZM11.5444 18.2407L13.5901 17.0465V8.07203L12.1089 8.93666L10.0629 10.1312V19.1058L11.5444 18.2407ZM22.408 7.82416L18.882 9.88253L22.408 11.9408L25.9334 9.88203L22.408 7.82416ZM22.0551 12.5602L20.009 11.3655L18.528 10.501V14.5757L20.5736 15.7698L22.0551 16.6348V12.5602ZM13.942 21.7424L19.1136 18.7484L21.6989 17.2524L18.1756 15.1954L14.119 17.5637L10.4218 19.722L13.942 21.7424Z" fill="#FF2D20"/>
</g>
<defs>
<clipPath id="clip0_110_141">
<rect width="32" height="32" fill="white"/>
</clipPath>
</defs>
</svg>

