<svg width="32" height="32" viewBox="0 0 32 32" fill="none" xmlns="http://www.w3.org/2000/svg">
<path d="M18.0657 2.3606C17.8729 2.3606 17.6938 2.403 17.5285 2.45967C17.8798 2.70009 18.0726 3.01838 18.169 3.37908C18.176 3.42856 18.1897 3.46389 18.1966 3.51337C18.2035 3.5559 18.2104 3.5983 18.2104 3.64071C18.2379 4.26316 18.0519 4.3409 17.9211 4.70867C17.7213 5.18258 17.7764 5.6917 18.0175 6.10199C18.0382 6.15147 18.0657 6.20801 18.1001 6.2576C17.8384 4.46825 19.2918 4.19943 19.5605 3.64071C19.5811 3.15267 19.1885 2.82731 18.8785 2.60102C18.5823 2.41714 18.3137 2.3606 18.0657 2.3606ZM20.2562 2.7637C20.2286 2.92638 20.2493 2.88397 20.2425 2.96879C20.2355 3.02545 20.2355 3.09613 20.2286 3.15267C20.2157 3.21016 20.1996 3.26688 20.1804 3.32254C20.1666 3.37908 20.1459 3.43562 20.1254 3.49217C20.0977 3.54883 20.0771 3.5983 20.0495 3.65485C20.0289 3.68312 20.0151 3.71139 19.9945 3.73978L19.9531 3.80339C19.9186 3.85299 19.8842 3.90246 19.8497 3.94474C19.8085 3.98727 19.774 4.03675 19.7258 4.07209V4.07928C19.6844 4.11462 19.6432 4.15702 19.5949 4.19236C19.4503 4.30557 19.285 4.39038 19.1334 4.49652C19.0852 4.53186 19.037 4.56013 18.9956 4.60253C18.9474 4.63799 18.9062 4.67321 18.8648 4.71574C18.8166 4.75814 18.7821 4.80055 18.7408 4.85015C18.7064 4.89255 18.665 4.94203 18.6375 4.9915C18.603 5.0411 18.5686 5.0907 18.5411 5.14005C18.5134 5.19671 18.4929 5.24619 18.4652 5.30273C18.4447 5.35939 18.424 5.40887 18.4102 5.46541C18.3895 5.52914 18.3758 5.58568 18.362 5.64222C18.3551 5.67049 18.3551 5.70596 18.3481 5.73423C18.3413 5.7625 18.3413 5.79077 18.3344 5.81904C18.3344 5.87558 18.3275 5.93931 18.3275 5.99585C18.3275 6.03826 18.3275 6.08079 18.3344 6.1232C18.3344 6.17974 18.3413 6.23628 18.3551 6.30001C18.362 6.35655 18.3758 6.41309 18.3895 6.46976C18.4102 6.5263 18.424 6.58284 18.4447 6.63951C18.4584 6.67484 18.4791 6.71018 18.4929 6.73845L16.9086 6.10906C16.644 6.03174 16.3776 5.961 16.1095 5.89691L15.6755 5.79077C15.2611 5.7059 14.8427 5.64217 14.4219 5.59982C14.4081 5.59982 14.4013 5.59275 14.3874 5.59275C13.9778 5.55036 13.5663 5.52909 13.1545 5.52902C12.8513 5.52902 12.5483 5.54315 12.2521 5.56448C11.832 5.59275 11.4118 5.64929 10.9916 5.72009C10.8882 5.73423 10.785 5.75543 10.6816 5.77663C10.4681 5.81904 10.2615 5.86851 10.0616 5.91798L9.75179 6.00292C9.64831 6.04533 9.5519 6.09492 9.45561 6.13733L9.2282 6.24335C9.21444 6.25041 9.20069 6.25041 9.19375 6.25748C9.12485 6.29294 9.06288 6.32121 9.00092 6.35655C8.98427 6.36232 8.96811 6.36941 8.95259 6.37775C8.87699 6.41309 8.80115 6.4555 8.73918 6.49096C8.69085 6.51204 8.64264 6.54043 8.60138 6.56164C8.58068 6.57577 8.55305 6.58991 8.53941 6.59698C8.47745 6.63244 8.41549 6.66765 8.36021 6.70312C8.29825 6.73845 8.24323 6.77379 8.1949 6.80913C8.14669 6.84459 8.09848 6.87286 8.05721 6.9082C8.05027 6.91527 8.04346 6.91527 8.03652 6.92234C7.99525 6.95061 7.94704 6.98595 7.90565 7.02141L7.89189 7.03554L7.78854 7.12036C7.77491 7.12742 7.76103 7.14156 7.74727 7.14863C7.71282 7.1769 7.67837 7.21236 7.64392 7.24063C7.63698 7.25476 7.62322 7.26171 7.6164 7.2689C7.57501 7.31131 7.53374 7.34664 7.49248 7.38917C7.48541 7.38917 7.48541 7.39624 7.4786 7.40331C7.43721 7.43865 7.39594 7.48105 7.35467 7.52358C7.34773 7.53053 7.34773 7.53759 7.34079 7.53759C7.30634 7.57293 7.27201 7.60827 7.23756 7.6508C7.2238 7.66494 7.20311 7.67907 7.18923 7.69321C7.1549 7.73561 7.11363 7.77814 7.07224 7.82055C7.0653 7.83468 7.05155 7.84175 7.04461 7.85589C6.98958 7.91243 6.94125 7.96909 6.88623 8.02564L6.86553 8.04684C6.75524 8.16711 6.63825 8.28739 6.5142 8.3934C6.39027 8.50661 6.2594 8.61262 6.12854 8.70463C5.9951 8.80069 5.85718 8.89035 5.71524 8.97332C5.57481 9.0524 5.4299 9.12324 5.28125 9.18548C5.13486 9.24939 4.98543 9.30609 4.8335 9.35535C4.54425 9.41896 4.24807 9.53911 3.99327 9.56031C3.938 9.56031 3.87604 9.57445 3.82101 9.58164C3.75905 9.59577 3.7039 9.60991 3.64875 9.62404C3.59361 9.64512 3.53846 9.66645 3.48344 9.68765C3.42829 9.70886 3.37314 9.73725 3.31812 9.76552C3.26979 9.80086 3.21476 9.82913 3.16655 9.86447C3.11749 9.90078 3.07145 9.941 3.02887 9.98474C2.98054 10.0201 2.93233 10.0696 2.89106 10.112C2.84967 10.1616 2.8084 10.204 2.77395 10.2534C2.7395 10.3101 2.69823 10.3596 2.6706 10.4161C2.63615 10.4657 2.60169 10.5223 2.57418 10.5788C2.54667 10.6424 2.51904 10.6991 2.49846 10.7627C2.47777 10.8192 2.45707 10.883 2.4365 10.9466C2.42262 11.0031 2.40886 11.0598 2.40205 11.1163C2.40205 11.1234 2.39511 11.1304 2.39511 11.1375C2.38135 11.2012 2.38135 11.2861 2.37441 11.3285C2.36747 11.3781 2.36066 11.4205 2.36066 11.4699C2.36066 11.4982 2.36066 11.5336 2.3676 11.5619C2.37441 11.6114 2.38123 11.6538 2.39511 11.6962C2.40886 11.7388 2.42274 11.7812 2.44344 11.8236V11.8306C2.46401 11.873 2.49152 11.9155 2.51904 11.958C2.54667 12.0004 2.57418 12.0428 2.60863 12.0852C2.64309 12.1207 2.68448 12.1631 2.72575 12.1984C2.76606 12.2398 2.80984 12.2777 2.85661 12.3116C3.02193 12.46 3.06332 12.5096 3.27673 12.6227C3.3113 12.644 3.34563 12.6582 3.38702 12.6794C3.39396 12.6794 3.40078 12.6864 3.40772 12.6864C3.40772 12.7006 3.40772 12.7077 3.41453 12.7218C3.42147 12.7783 3.43523 12.835 3.44898 12.8915C3.46274 12.9551 3.48344 13.0118 3.50413 13.0613C3.52483 13.1037 3.53858 13.1461 3.55928 13.1886C3.5661 13.2028 3.57291 13.2169 3.57985 13.224C3.60749 13.2805 3.635 13.33 3.66251 13.3796L3.76587 13.5281C3.80032 13.5705 3.84171 13.62 3.88298 13.6624C3.92437 13.7049 3.96564 13.7403 4.01384 13.7827C4.01384 13.7827 4.02078 13.7897 4.0276 13.7897C4.06899 13.8251 4.11026 13.8605 4.15153 13.8888C4.19986 13.9242 4.24807 13.9524 4.30321 13.9807C4.35388 14.0108 4.40683 14.0368 4.46159 14.0586C4.50286 14.0798 4.55107 14.0939 4.5994 14.108C4.60622 14.1151 4.61303 14.1151 4.62691 14.1222C4.65442 14.1292 4.68887 14.1363 4.71651 14.1434C4.69581 14.5253 4.68887 14.886 4.74402 15.0133C4.80599 15.1548 5.10911 14.7233 5.41224 14.2282C5.37085 14.7162 5.34333 15.2891 5.41224 15.4588C5.48783 15.6356 5.90125 15.084 6.2594 14.4758C11.1431 13.3158 15.5998 16.7815 16.0682 21.6756C15.9786 20.9117 15.0626 20.4874 14.6423 20.5935C14.4357 21.1168 14.0844 21.7887 13.5195 22.206C13.5679 21.7393 13.5472 21.2583 13.4508 20.7916C13.2992 21.4422 13.003 22.0505 12.5965 22.5737C11.9422 22.6233 11.2879 22.298 10.9434 21.8099C10.9158 21.7887 10.909 21.7463 10.8883 21.7181C10.8676 21.6685 10.8469 21.619 10.8332 21.5695C10.8131 21.522 10.7992 21.472 10.7919 21.421C10.785 21.3715 10.785 21.322 10.785 21.2653V21.1593C10.7919 21.1097 10.8057 21.0603 10.8194 21.0108C10.8331 20.9613 10.8469 20.9117 10.8676 20.8622C10.8951 20.8128 10.9158 20.7633 10.9503 20.7137C11.0674 20.3742 11.0674 20.0984 10.8539 19.9358C10.8126 19.9081 10.7688 19.8844 10.723 19.8651C10.6954 19.8579 10.661 19.8438 10.6334 19.8367C10.6127 19.8296 10.599 19.8226 10.5784 19.8155C10.5301 19.8013 10.4818 19.7872 10.4336 19.7801C10.3867 19.7662 10.338 19.7591 10.289 19.7589C10.2389 19.7507 10.1882 19.746 10.1375 19.7448C10.103 19.7448 10.0685 19.7519 10.0341 19.7519C9.97907 19.7519 9.93087 19.7589 9.88266 19.7731C9.83433 19.7801 9.78612 19.7872 9.73791 19.8014C9.6897 19.8155 9.6415 19.8297 9.59329 19.8509C9.54508 19.8722 9.50381 19.8934 9.45561 19.9146C9.41421 19.9358 9.37282 19.964 9.32462 19.9852C7.71976 21.0603 8.67722 23.5781 9.77236 24.3066C9.35907 24.3844 8.93895 24.4763 8.82184 24.5683L8.80809 24.5824C9.10427 24.7663 9.41421 24.9219 9.73804 25.0562C10.107 25.1791 10.479 25.2923 10.8539 25.3957V25.4028C11.4242 25.5229 12.008 25.5658 12.5897 25.5301C15.6412 25.3109 18.1415 22.9275 18.5962 19.7872C18.61 19.8509 18.6237 19.9075 18.6375 19.9711C18.6582 20.0984 18.6857 20.2328 18.6996 20.3671V20.3743C18.7133 20.4379 18.7201 20.5015 18.7271 20.5582V20.5865C18.734 20.6501 18.7408 20.7138 18.7408 20.7704C18.7478 20.8481 18.7546 20.926 18.7546 21.0037V21.1169C18.7546 21.1523 18.7615 21.1947 18.7615 21.23C18.7615 21.2725 18.7546 21.3149 18.7546 21.3574V21.4564C18.7546 21.5059 18.7478 21.5483 18.7478 21.5979C18.7478 21.6262 18.7478 21.6544 18.7408 21.6898C18.7408 21.7393 18.7339 21.7889 18.7339 21.8454C18.727 21.8666 18.727 21.8878 18.727 21.909C18.7201 21.9657 18.7132 22.0151 18.7064 22.0717C18.7064 22.0929 18.7064 22.1141 18.6995 22.1354C18.6925 22.2061 18.6788 22.2697 18.6719 22.3405V22.3546C18.6582 22.4182 18.6443 22.489 18.6305 22.5527V22.5739L18.5893 22.7648C18.5893 22.7719 18.5823 22.786 18.5823 22.7931C18.5695 22.8576 18.5535 22.9213 18.5341 22.9842V23.0054C18.5134 23.076 18.4927 23.1396 18.479 23.2034C18.4722 23.2104 18.4722 23.2175 18.4722 23.2175L18.4101 23.4297C18.3826 23.5003 18.3619 23.5641 18.3344 23.6348C18.3069 23.7054 18.2862 23.7762 18.2586 23.8398C18.231 23.9106 18.2035 23.9742 18.176 24.0449H18.169C18.1414 24.1087 18.1139 24.1793 18.0794 24.2429C18.0738 24.26 18.0669 24.2766 18.0587 24.2925C18.0519 24.2996 18.0519 24.3067 18.045 24.3137C17.5972 25.2402 16.9361 26.0535 16.1095 26.6901C16.0544 26.7254 15.9992 26.7678 15.9442 26.8104C15.9304 26.8244 15.9097 26.8316 15.896 26.8457C15.8476 26.881 15.7994 26.9164 15.7444 26.9517L15.765 26.9942H15.7719L16.0613 26.9517H16.0681C16.2472 26.9234 16.4264 26.8881 16.6055 26.8528C16.6567 26.8443 16.7073 26.8325 16.757 26.8174C16.7913 26.8102 16.819 26.8033 16.8534 26.7961C16.9016 26.789 16.9499 26.7749 16.9981 26.7678C17.0393 26.7537 17.0807 26.7466 17.122 26.7325C17.8109 26.5627 18.479 26.3294 19.1196 26.0535C18.0244 27.5883 16.5572 28.826 14.8421 29.6393C15.6342 29.5827 16.4264 29.4483 17.1909 29.222C19.9669 28.3804 22.302 26.4637 23.7003 23.8822C23.4179 25.516 22.7841 27.072 21.8473 28.4298C22.5166 27.9763 23.1335 27.4497 23.6865 26.8598C25.2294 25.2049 26.242 23.1043 26.5864 20.8482C26.8215 21.9683 26.8888 23.1172 26.7862 24.2571C31.7595 17.1351 27.1995 9.75139 25.2915 7.80654C25.2846 7.7924 25.2777 7.78521 25.2777 7.77108C25.2708 7.77827 25.2708 7.77827 25.2708 7.78521C25.2708 7.77814 25.2708 7.77814 25.2639 7.77108C25.2639 7.85601 25.2569 7.94095 25.2501 8.02576C25.2311 8.18423 25.2081 8.34221 25.1812 8.49954C25.1468 8.65515 25.1055 8.81077 25.0641 8.96638C25.0151 9.11941 24.96 9.2704 24.8988 9.41896C24.8355 9.56542 24.7666 9.70936 24.6922 9.85046C24.6164 9.98487 24.5337 10.1262 24.4442 10.2536C24.3557 10.3849 24.2615 10.5124 24.1618 10.6355C24.0584 10.7628 23.9483 10.876 23.8381 10.9891C23.7692 11.0528 23.7071 11.1094 23.6383 11.1659C23.5832 11.2155 23.535 11.2579 23.4798 11.3073C23.3559 11.4065 23.2318 11.4982 23.0942 11.5831C22.9633 11.6681 22.8255 11.753 22.6877 11.8237C22.5444 11.8926 22.3997 11.9586 22.2538 12.0217C22.1071 12.0786 21.9577 12.1281 21.8061 12.1703C21.6538 12.2123 21.4999 12.2477 21.3446 12.2763C21.186 12.3047 21.0277 12.3188 20.8761 12.3329C20.7659 12.34 20.6556 12.3471 20.5455 12.3471C20.3871 12.3471 20.2286 12.3329 20.077 12.3187C19.9186 12.3045 19.7603 12.2833 19.6087 12.248C19.4502 12.2197 19.2988 12.1773 19.1472 12.1277H19.1403C19.2918 12.1136 19.4434 12.0995 19.5949 12.0712C19.7504 12.0433 19.9044 12.0079 20.0565 11.9651C20.208 11.923 20.3574 11.8734 20.5041 11.8165C20.6556 11.76 20.8003 11.6893 20.9381 11.6185C21.0827 11.5478 21.2136 11.4701 21.3514 11.3851C21.4822 11.2933 21.6131 11.2012 21.7372 11.1023C21.8607 11.0036 21.978 10.8973 22.0884 10.784C22.2055 10.6779 22.3088 10.5577 22.4122 10.4374C22.513 10.3135 22.6095 10.1861 22.7014 10.0555C22.7152 10.0343 22.7291 10.0059 22.7428 9.98487C22.8119 9.87317 22.8785 9.75993 22.9426 9.64525C23.0184 9.50488 23.0873 9.36092 23.1492 9.21387C23.2115 9.06573 23.2666 8.9147 23.3145 8.76129C23.3627 8.61275 23.3972 8.45714 23.4316 8.30152C23.4592 8.13884 23.4868 7.98323 23.5005 7.82774C23.5143 7.66506 23.528 7.50238 23.528 7.34664C23.528 7.23356 23.5212 7.12048 23.5143 7.00727C23.5005 6.84459 23.4798 6.68898 23.4592 6.53337C23.4321 6.37394 23.3976 6.21585 23.3559 6.05959C23.3077 5.91104 23.2595 5.75543 23.2043 5.60701C23.1492 5.45834 23.0804 5.30992 23.0115 5.16844C22.9357 5.02709 22.8599 4.88549 22.7773 4.7512C22.6894 4.61874 22.5975 4.48898 22.5018 4.36211C22.3984 4.24183 22.2951 4.12168 22.1849 4.00141C22.1298 3.94487 22.0678 3.88113 22.0058 3.82472C21.6976 3.57895 21.3781 3.34766 21.0484 3.13159C21.004 3.10516 20.9579 3.08155 20.9106 3.06091C20.6833 2.91225 20.4698 2.83438 20.2562 2.7637Z" fill="#E0234E"/>
</svg>

