<svg width="28" height="29" viewBox="0 0 28 29" fill="none" xmlns="http://www.w3.org/2000/svg">
<g clip-path="url(#clip0_108_93)">
<path d="M13.8815 0.00805664C6.79102 0.00805664 7.23373 3.18874 7.23373 3.18874L7.24161 6.48403H14.0079V7.47337H4.55414C4.55414 7.47337 0.0169678 6.94108 0.0169678 14.3416C0.0169678 21.7423 3.97713 21.4798 3.97713 21.4798H6.34054V18.0456C6.34054 18.0456 6.21312 13.9491 10.2375 13.9491H16.9484C16.9484 13.9491 20.7188 14.0121 20.7188 10.1797V3.84298C20.7188 3.84298 21.2915 0.00805664 13.8815 0.00805664ZM10.1505 2.22407C10.3104 2.22392 10.4688 2.25639 10.6165 2.31962C10.7643 2.38284 10.8985 2.47558 11.0116 2.59254C11.1246 2.70949 11.2143 2.84836 11.2754 3.00119C11.3365 3.15403 11.3679 3.31783 11.3678 3.48322C11.3679 3.64862 11.3365 3.81242 11.2754 3.96526C11.2143 4.11809 11.1246 4.25696 11.0116 4.37391C10.8985 4.49086 10.7643 4.58361 10.6165 4.64683C10.4688 4.71006 10.3104 4.74252 10.1505 4.74238C9.99064 4.74252 9.83229 4.71006 9.68454 4.64683C9.5368 4.58361 9.40255 4.49086 9.28949 4.37391C9.17643 4.25696 9.08677 4.11809 9.02565 3.96526C8.96453 3.81242 8.93314 3.64862 8.93329 3.48322C8.93314 3.31783 8.96453 3.15403 9.02565 3.00119C9.08677 2.84836 9.17643 2.70949 9.28949 2.59254C9.40255 2.47558 9.5368 2.38284 9.68454 2.31962C9.83229 2.25639 9.99064 2.22392 10.1505 2.22407Z" fill="url(#paint0_linear_108_93)"/>
<path d="M14.0828 28.7495C21.1732 28.7495 20.7305 25.5688 20.7305 25.5688L20.7226 22.2737H13.9562V21.2843H23.41C23.41 21.2843 27.9472 21.8166 27.9472 14.4159C27.9472 7.0153 23.987 7.27776 23.987 7.27776H21.6236V10.7119C21.6236 10.7119 21.751 14.8083 17.7267 14.8083H11.0157C11.0157 14.8083 7.2453 14.7453 7.2453 18.5779V24.9147C7.2453 24.9147 6.67277 28.7495 14.0827 28.7495H14.0828ZM17.8137 26.5337C17.6538 26.5339 17.4955 26.5014 17.3477 26.4382C17.2 26.375 17.0657 26.2822 16.9527 26.1653C16.8396 26.0483 16.7499 25.9094 16.6888 25.7566C16.6277 25.6038 16.5963 25.44 16.5965 25.2746C16.5963 25.1092 16.6277 24.9454 16.6888 24.7925C16.7499 24.6397 16.8396 24.5008 16.9526 24.3838C17.0657 24.2669 17.1999 24.1741 17.3477 24.1109C17.4955 24.0476 17.6538 24.0152 17.8137 24.0153C17.9736 24.0152 18.132 24.0476 18.2797 24.1109C18.4275 24.1741 18.5617 24.2668 18.6748 24.3838C18.7878 24.5007 18.8775 24.6396 18.9386 24.7924C18.9997 24.9453 19.0311 25.1091 19.031 25.2745C19.0311 25.4399 18.9997 25.6037 18.9386 25.7565C18.8775 25.9093 18.7878 26.0482 18.6748 26.1651C18.5617 26.2821 18.4275 26.3748 18.2797 26.4381C18.132 26.5013 17.9736 26.5339 17.8137 26.5337Z" fill="url(#paint1_linear_108_93)"/>
</g>
<defs>
<linearGradient id="paint0_linear_108_93" x1="268.425" y1="258.52" x2="1698.91" y2="1627.6" gradientUnits="userSpaceOnUse">
<stop stop-color="#387EB8"/>
<stop offset="1" stop-color="#366994"/>
</linearGradient>
<linearGradient id="paint1_linear_108_93" x1="403.417" y1="449.168" x2="1937.19" y2="1850.85" gradientUnits="userSpaceOnUse">
<stop stop-color="#FFE052"/>
<stop offset="1" stop-color="#FFC331"/>
</linearGradient>
<clipPath id="clip0_108_93">
<rect width="28" height="28.8485" fill="white"/>
</clipPath>
</defs>
</svg>

