<svg width="32" height="33" viewBox="0 0 32 33" fill="none" xmlns="http://www.w3.org/2000/svg">
<g clip-path="url(#clip0_108_102)">
<path d="M16.001 6.59448C11.7343 6.59448 9.06854 8.7916 8.00104 13.1876C9.60054 10.9903 11.4678 10.1663 13.6005 10.7157C14.8183 11.0284 15.6885 11.9381 16.6523 12.9463C18.2208 14.5863 20.0363 16.4849 24.001 16.4849C28.2675 16.4849 30.9335 14.2875 32.001 9.89042C30.4013 12.0891 28.5343 12.9131 26.4013 12.3637C25.1838 12.0507 24.3145 11.1412 23.3495 10.1331C21.782 8.49307 19.967 6.59448 16.001 6.59448ZM8.00104 16.4849C3.73454 16.4849 1.06854 18.6823 0.0010376 23.0793C1.60054 20.8807 3.46754 20.0567 5.60054 20.6061C6.81829 20.919 7.68854 21.8285 8.65229 22.8367C10.2208 24.4767 12.0363 26.3753 16.001 26.3753C20.2675 26.3753 22.9335 24.1782 24.001 19.7821C22.4013 21.9795 20.5343 22.8035 18.4013 22.2541C17.1838 21.9414 16.3145 21.0316 15.3495 20.0235C13.782 18.3835 11.967 16.4849 8.00104 16.4849Z" fill="#38BDF8"/>
</g>
<defs>
<clipPath id="clip0_108_102">
<rect width="32" height="32.9697" fill="white"/>
</clipPath>
</defs>
</svg>

