<svg width="28" height="31" viewBox="0 0 28 31" fill="none" xmlns="http://www.w3.org/2000/svg">
<g clip-path="url(#clip0_108_82)">
<path d="M27.9973 9.04643C27.9971 8.52914 27.8839 8.07195 27.655 7.67957C27.4303 7.29372 27.0936 6.97032 26.6422 6.71461C22.9151 4.61305 19.1843 2.5179 15.4585 0.414196C14.454 -0.15293 13.4801 -0.13229 12.4829 0.443071C10.9995 1.29863 3.57219 5.45984 1.35882 6.71344C0.447407 7.22945 0.00383769 8.01912 0.00361896 9.04536C0.00219727 13.2719 0.00361896 17.4983 0.00219727 21.7248C0.00219727 22.2306 0.110793 22.6791 0.329516 23.0656C0.554363 23.4631 0.895679 23.7954 1.35762 24.0568C3.57109 25.3104 10.9994 29.4714 12.4825 30.3271C13.48 30.9027 14.454 30.9233 15.4588 30.356C19.1847 28.2522 22.9157 26.1571 26.6434 24.0555C27.1053 23.7942 27.4466 23.4617 27.6715 23.0645C27.8899 22.678 27.9987 22.2297 27.9987 21.7235C27.9987 21.7235 27.9987 13.273 27.9973 9.04643Z" fill="#649AD2"/>
<path d="M14.0429 15.344L0.328979 23.0656C0.553936 23.4631 0.895253 23.7954 1.35719 24.0569C3.57067 25.3105 10.9989 29.4715 12.4821 30.3271C13.4796 30.9027 14.4535 30.9233 15.4584 30.356C19.1843 28.2522 22.9153 26.1571 26.643 24.0556C27.1049 23.7942 27.4462 23.4617 27.6711 23.0645L14.0429 15.344Z" fill="#004482"/>
<path d="M9.98096 17.6312C10.779 18.9935 12.2791 19.9123 14 19.9123C15.7315 19.9123 17.2401 18.9819 18.0341 17.6049L14.0429 15.344L9.98096 17.6312Z" fill="#1A4674"/>
<path d="M27.9968 9.04654C27.9966 8.52925 27.8834 8.07207 27.6545 7.67969L14.0428 15.3441L27.671 23.0646C27.8894 22.6781 27.998 22.2298 27.9982 21.7236C27.9982 21.7236 27.9982 13.2731 27.9968 9.04654Z" fill="#01589C"/>
<path d="M27.2475 15.8959H26.1825V16.9375H25.1173V15.8959H24.0525V14.8547H25.1173V13.8133H26.1825V14.8547H27.2475V15.8959ZM14 6.29346C17.405 6.29346 20.3821 8.08371 22.002 10.754L22.0505 10.8352L18.004 13.1138C17.2021 11.7654 15.7099 10.858 14 10.858C11.4431 10.858 9.37041 12.8849 9.37041 15.3851C9.36956 16.1732 9.58008 16.9477 9.98097 17.6313C10.779 18.9935 12.2791 19.9124 14 19.9124C15.7125 19.9124 17.207 19.0023 18.0078 17.6502L18.0341 17.605L22.0747 19.8942C20.4726 22.6317 17.4566 24.4769 14 24.4769C10.5498 24.4769 7.5385 22.6391 5.93417 19.9096C5.15092 18.5772 4.70276 17.0324 4.70276 15.3851C4.70276 10.3641 8.86516 6.29346 14 6.29346ZM22.2967 13.8131V14.8546H23.3615V15.8959H22.2967V16.9375H21.2317V15.8959H20.1668V14.8547H21.2317V13.8133L22.2967 13.8131Z" fill="white"/>
</g>
<defs>
<clipPath id="clip0_108_82">
<rect width="28" height="30.8" fill="white"/>
</clipPath>
</defs>
</svg>

