<svg width="32" height="32" viewBox="0 0 32 32" fill="none" xmlns="http://www.w3.org/2000/svg">
<rect width="32" height="32" rx="6" fill="white"/>
<g clip-path="url(#clip0_110_158)">
<path d="M-1.79316 14.0977C-1.85659 14.0977 -1.87253 14.0659 -1.84076 14.0183L-1.50753 13.5895C-1.48598 13.5644 -1.4592 13.5442 -1.42906 13.5305C-1.39892 13.5168 -1.36615 13.5098 -1.33304 13.5101H4.33131C4.39474 13.5101 4.41068 13.5577 4.37891 13.6054L4.10922 14.0182C4.07105 14.0697 4.01398 14.104 3.95057 14.1134L-1.79316 14.0977ZM-4.18902 15.5579C-4.25246 15.5579 -4.2684 15.5261 -4.23663 15.4785L-3.90339 15.0498C-3.88185 15.0246 -3.85507 15.0045 -3.82493 14.9908C-3.79479 14.977 -3.76202 14.9701 -3.72891 14.9704H3.50629C3.51858 14.9686 3.53111 14.9701 3.54269 14.9745C3.55427 14.979 3.56452 14.9864 3.57247 14.9959C3.58042 15.0054 3.5858 15.0168 3.58811 15.0291C3.59042 15.0413 3.58958 15.0538 3.58567 15.0656L3.45869 15.447C3.44901 15.4767 3.42964 15.5022 3.40369 15.5195C3.37775 15.5368 3.34674 15.5448 3.31567 15.5423L-4.18902 15.5579ZM-0.349281 17.0186C-0.41272 17.0186 -0.428656 16.9709 -0.396886 16.9233L-0.174799 16.5264C-0.157356 16.4995 -0.133995 16.4769 -0.1065 16.4604C-0.0790038 16.4439 -0.0481008 16.4339 -0.0161505 16.4311H3.15723C3.22067 16.4311 3.25244 16.4788 3.25244 16.5422L3.22067 16.9233C3.21875 16.9522 3.20643 16.9793 3.18601 16.9998C3.16559 17.0202 3.13844 17.0325 3.10962 17.0344L-0.349281 17.0186ZM16.1201 13.8115C15.1205 14.0655 14.4382 14.256 13.4546 14.5101C13.2165 14.5735 13.2007 14.5895 12.9949 14.3513C12.7568 14.0814 12.5823 13.9067 12.2491 13.7482C11.2495 13.256 10.2817 13.3989 9.37731 13.9864C8.29843 14.685 7.74281 15.7169 7.75895 17.0029C7.77478 18.2731 8.64771 19.3209 9.90096 19.4956C10.9798 19.6387 11.8842 19.2575 12.5979 18.4478C12.7409 18.2732 12.8676 18.0826 13.0263 17.8603H9.96389C9.63065 17.8603 9.55138 17.6539 9.66242 17.384C9.86868 16.8918 10.2495 16.0663 10.4716 15.6535C10.5057 15.577 10.5614 15.5122 10.6319 15.4671C10.7024 15.4219 10.7846 15.3984 10.8683 15.3995H16.6437C16.6119 15.8282 16.6119 16.2568 16.5485 16.6855C16.3841 17.816 15.9365 18.8865 15.2474 19.7974C14.105 21.3054 12.6135 22.242 10.7255 22.4961C9.17054 22.7024 7.72667 22.4008 6.45738 21.4482C5.89323 21.035 5.42228 20.5076 5.07512 19.9004C4.72797 19.2932 4.51237 18.6196 4.44235 17.9236C4.2361 16.193 4.74381 14.6371 5.79081 13.2716C6.91749 11.7951 8.40897 10.8585 10.2333 10.525C11.7248 10.2552 13.1527 10.4297 14.4379 11.3029C15.2598 11.8499 15.9005 12.6292 16.2785 13.5416C16.374 13.6845 16.3104 13.7639 16.1201 13.8115Z" fill="#5DC9E1"/>
<path d="M21.3719 22.5915C19.928 22.5597 18.6111 22.147 17.5002 21.1943C16.5761 20.415 15.967 19.3259 15.7866 18.1301C15.5006 16.336 15.9929 14.7484 17.0718 13.3354C18.2301 11.8113 19.6264 11.0174 21.5144 10.684C23.1328 10.3977 24.656 10.5569 26.0363 11.4937C27.2898 12.351 28.0672 13.51 28.2736 15.0341C28.5433 17.1775 27.9245 18.9239 26.4489 20.4163C25.4144 21.4638 24.0866 22.1724 22.641 22.4485C22.2128 22.528 21.7845 22.5439 21.3719 22.5915ZM25.1481 16.1774C25.1423 16.002 25.1264 15.8271 25.1005 15.6535C24.8145 14.0817 23.3711 13.1926 21.8638 13.5419C20.3882 13.8753 19.4362 14.812 19.0872 16.3044C18.9429 16.8964 19.0099 17.5203 19.2764 18.0682C19.5429 18.616 19.9923 19.0536 20.5469 19.3052C21.4195 19.6863 22.2922 19.6386 23.1332 19.2099C24.3865 18.5589 25.0688 17.5428 25.1481 16.1774Z" fill="#5DC9E1"/>
</g>
<defs>
<clipPath id="clip0_110_158">
<rect width="26" height="23" fill="white" transform="translate(3 5)"/>
</clipPath>
</defs>
</svg>

