<svg width="32" height="31" viewBox="0 0 32 31" fill="none" xmlns="http://www.w3.org/2000/svg">
<g clip-path="url(#clip0_108_126)">
<path d="M24.5 0H7.5C3.35786 0 0 3.25293 0 7.26562V23.7344C0 27.7471 3.35786 31 7.5 31H24.5C28.6421 31 32 27.7471 32 23.7344V7.26562C32 3.25293 28.6421 0 24.5 0Z" fill="#023430"/>
<path d="M21.3966 13.0286C20.0795 7.40004 17.3345 5.90162 16.6343 4.84242C16.3455 4.37581 16.0897 3.89076 15.8686 3.39062C15.8316 3.89074 15.7636 4.20559 15.3249 4.58485C14.444 5.34568 10.7028 8.29916 10.3879 14.6945C10.0945 20.6574 14.9129 24.3342 15.5494 24.7143C16.0389 24.9476 16.635 24.7192 16.9259 24.505C19.2485 22.9608 22.422 18.8439 21.3991 13.0286" fill="#10AA50"/>
<path d="M16.0681 21.5391C15.9469 23.015 15.86 23.8725 15.552 24.716C15.552 24.716 15.7541 26.121 15.8961 27.6094H16.3985C16.5183 26.5613 16.7013 25.5208 16.9465 24.4934C16.2961 24.1834 16.0931 22.8342 16.0681 21.5391Z" fill="#B8C4C2"/>
<path d="M16.9456 24.4943C16.2884 24.2001 16.0983 22.8225 16.069 21.5391C16.2315 19.422 16.2789 17.2981 16.211 15.1762C16.1765 14.0629 16.2273 4.86414 15.9279 3.51733C16.1327 3.97348 16.3687 4.41589 16.6343 4.84162C17.3345 5.90167 20.0804 7.40008 21.3966 13.0286C22.422 18.834 19.2658 22.94 16.9456 24.4943Z" fill="#12924F"/>
</g>
<defs>
<clipPath id="clip0_108_126">
<rect width="32" height="31" fill="white"/>
</clipPath>
</defs>
</svg>

