<svg width="32" height="32" viewBox="0 0 32 32" fill="none" xmlns="http://www.w3.org/2000/svg">
<g clip-path="url(#clip0_108_118)">
<path d="M24.5 0H7.5C3.35786 0 0 3.35786 0 7.5V24.5C0 28.6421 3.35786 32 7.5 32H24.5C28.6421 32 32 28.6421 32 24.5V7.5C32 3.35786 28.6421 0 24.5 0Z" fill="#F4F2ED"/>
<mask id="mask0_108_118" style="mask-type:luminance" maskUnits="userSpaceOnUse" x="4" y="4" width="24" height="24">
<path d="M4.75 4.75H27.25V27.25H4.75V4.75Z" fill="white"/>
</mask>
<g mask="url(#mask0_108_118)">
<path fill-rule="evenodd" clip-rule="evenodd" d="M25.4751 22.2763C24.2514 22.2423 23.302 22.3676 22.5064 22.7024C22.2772 22.7944 21.9096 22.7944 21.8794 23.0828C22.0019 23.2038 22.0166 23.4018 22.124 23.5695C22.3074 23.8739 22.6291 24.2839 22.9196 24.4966L23.8989 25.1964C24.4956 25.561 25.1689 25.7741 25.7502 26.1391C26.087 26.3521 26.4235 26.6259 26.7602 26.8543C26.9317 26.9759 27.0356 27.174 27.25 27.2496V27.2036C27.143 27.0673 27.1121 26.8696 27.0055 26.7169L26.5459 26.2761C26.1025 25.6831 25.5512 25.1656 24.9545 24.7403C24.4647 24.4056 23.394 23.9495 23.195 23.3871L23.1649 23.353C23.501 23.319 23.8989 23.2006 24.2205 23.1094C24.7411 22.973 25.2151 23.003 25.7502 22.8663L26.4852 22.6533V22.5169C26.2097 22.2433 26.0109 21.8781 25.7204 21.6199C24.9401 20.9508 24.0826 20.2966 23.195 19.7493C22.7207 19.4453 22.1085 19.2471 21.6036 18.9891C21.4195 18.8978 21.1139 18.8521 21.0069 18.7001C20.7307 18.3661 20.5781 17.9246 20.3792 17.529L19.1246 14.883C18.8492 14.2899 18.6805 13.6968 18.3444 13.1494C16.768 10.564 15.0539 8.99789 12.4219 7.46164C11.856 7.14227 11.1827 7.00489 10.4669 6.83789L9.31936 6.77664C9.07411 6.67027 8.82949 6.38114 8.61524 6.24414C7.74299 5.69664 5.49349 4.51064 4.85024 6.07377C4.43711 7.06214 5.46261 8.03527 5.81074 8.53739C6.07136 8.88714 6.40749 9.28239 6.59161 9.67789C6.69449 9.93627 6.72886 10.2103 6.83624 10.484C7.08074 11.153 7.31049 11.8985 7.63186 12.5223C7.80336 12.8416 7.98349 13.1766 8.19774 13.4654C8.32024 13.6358 8.53461 13.7088 8.58024 13.9824C8.36586 14.2868 8.35111 14.7425 8.22861 15.1233C7.67749 16.8418 7.89186 18.9708 8.67211 20.236C8.91736 20.616 9.49524 21.4528 10.2794 21.1331C10.968 20.8594 10.8144 19.9926 11.0132 19.2321C11.0595 19.0499 11.0287 18.9281 11.1202 18.8061V18.8403L11.7479 20.1024C12.2222 20.8475 13.0489 21.6233 13.7371 22.1406C14.1041 22.4144 14.395 22.8861 14.8539 23.0531V23.0071H14.8237C14.7317 22.8708 14.5939 22.8094 14.4715 22.703C14.1961 22.4294 13.8901 22.0946 13.6757 21.7906C13.0334 20.9391 12.4675 19.996 11.9622 19.0229C11.7171 18.5515 11.5027 18.0344 11.3045 17.563C11.2119 17.3804 11.2119 17.1063 11.0592 17.0156C10.8294 17.3496 10.4934 17.6394 10.3242 18.0498C10.0334 18.7035 10.0032 19.5096 9.89624 20.3461C9.83449 20.3614 9.86186 20.3461 9.83449 20.3801C9.34536 20.2589 9.17661 19.7564 8.99324 19.331C8.53424 18.2513 8.45736 16.5176 8.85524 15.2705C8.96224 14.9511 9.42186 13.9474 9.23836 13.6433C9.14586 13.3543 8.84049 13.1873 8.67174 12.9589C8.47286 12.6699 8.25924 12.3051 8.12136 11.9858C7.75436 11.1336 7.57086 10.1911 7.17261 9.33952C6.98849 8.94402 6.66749 8.53327 6.40711 8.16864C6.11624 7.75789 5.79561 7.46877 5.56586 6.98239C5.48936 6.81202 5.38236 6.54139 5.50474 6.35864C5.53499 6.23702 5.59661 6.18827 5.71849 6.16102C5.91724 5.99052 6.48399 6.20664 6.68286 6.29727C7.24874 6.52564 7.72311 6.73839 8.19749 7.05739C8.41186 7.20939 8.64161 7.49852 8.91699 7.57489H9.23874C9.72849 7.68114 10.279 7.60889 10.7375 7.74527C11.5487 8.00427 12.283 8.38402 12.9415 8.79502C14.9459 10.0573 16.599 11.8518 17.7156 13.9964C17.8991 14.3461 17.9756 14.6655 18.1444 15.0305C18.4661 15.776 18.864 16.5361 19.1846 17.2665C19.5064 17.9813 19.8122 18.7118 20.2712 19.3048C20.501 19.6241 21.4187 19.7911 21.8317 19.9585C22.138 20.0949 22.612 20.2176 22.8881 20.3846C23.408 20.704 23.9284 21.069 24.4177 21.4188C24.6622 21.6008 25.4279 21.9811 25.4734 22.2845L25.4751 22.2763ZM9.86974 9.06089C9.65837 9.05903 9.44766 9.08458 9.24286 9.13689V9.17102H9.27299C9.39549 9.41439 9.60986 9.58177 9.76274 9.79477L10.115 10.5248L10.1452 10.4908C10.3595 10.3388 10.4669 10.0954 10.4669 9.73077C10.375 9.62439 10.3599 9.51764 10.2834 9.41127C10.1915 9.25927 9.99261 9.18289 9.86974 9.06164V9.06089Z" fill="#00678C"/>
</g>
</g>
<defs>
<clipPath id="clip0_108_118">
<rect width="32" height="32" fill="white"/>
</clipPath>
</defs>
</svg>

