<svg width="32" height="33" viewBox="0 0 32 33" fill="none" xmlns="http://www.w3.org/2000/svg">
<g clip-path="url(#clip0_108_100)">
<path fill-rule="evenodd" clip-rule="evenodd" d="M4.60517e-07 16.485C0.000103065 13.6404 0.714622 10.8443 2.07408 8.36847C3.43354 5.89265 5.39168 3.8214 7.75809 2.35611C10.1245 0.890828 12.8187 0.0813717 15.5786 0.00645216C18.3385 -0.0684673 21.0703 0.5937 23.5083 1.92857C25.9464 3.26344 28.0076 5.22558 29.4917 7.62421C30.9759 10.0228 31.8323 12.7763 31.9778 15.6169C32.1233 18.4575 31.5528 21.2886 30.322 23.8348C29.0911 26.381 27.2417 28.5558 24.9536 30.1476L10.4683 9.25362C10.337 9.06411 10.1507 8.92245 9.93632 8.84905C9.72189 8.77565 9.49037 8.7743 9.27515 8.8452C9.05993 8.9161 8.87212 9.05558 8.73879 9.24354C8.60547 9.4315 8.53353 9.65823 8.53333 9.89103V26.3759H10.6667V13.3199L23.104 31.2598C20.6643 32.5053 17.9565 33.0888 15.2368 32.955C12.5172 32.8212 9.87564 31.9745 7.56226 30.4952C5.24888 29.0158 3.34019 26.9526 2.01687 24.5009C0.693538 22.0493 -0.000652719 19.2902 4.60517e-07 16.485ZM21.3333 21.9799V8.79204H23.4667V21.9799H21.3333Z" fill="#F8F8F8"/>
</g>
<defs>
<clipPath id="clip0_108_100">
<rect width="32" height="32.9697" fill="white"/>
</clipPath>
</defs>
</svg>

