<svg width="29" height="28" viewBox="0 0 29 28" fill="none" xmlns="http://www.w3.org/2000/svg">
<g clip-path="url(#clip0_108_88)">
<path d="M15.0371 21.3739C22.7579 21.3739 29.0168 18.0725 29.0168 14.0001C29.0168 9.92761 22.7579 6.62622 15.0371 6.62622C7.31626 6.62622 1.05731 9.92761 1.05731 14.0001C1.05731 18.0725 7.31626 21.3739 15.0371 21.3739Z" fill="url(#paint0_radial_108_88)"/>
<path d="M15.0371 20.8262C22.4562 20.8262 28.4706 17.77 28.4706 14C28.4706 10.23 22.4562 7.17383 15.0371 7.17383C7.61791 7.17383 1.60352 10.23 1.60352 14C1.60352 17.77 7.61791 20.8262 15.0371 20.8262Z" fill="#6280B6"/>
<path d="M17.7581 16.2026L18.4241 12.7645C18.519 12.4702 18.5346 12.1561 18.4694 11.8538C18.4042 11.5516 18.2604 11.272 18.0527 11.0434C17.4728 10.6306 16.7629 10.4437 16.0556 10.5178H14.9042L15.2348 8.81573C15.2408 8.78404 15.2398 8.75141 15.2318 8.72016C15.2238 8.68891 15.209 8.65982 15.1885 8.63495C15.168 8.61009 15.1422 8.59007 15.1131 8.57632C15.084 8.56258 15.0522 8.55544 15.0201 8.55542H13.4224C13.3717 8.5554 13.3225 8.57307 13.2833 8.6054C13.2442 8.63773 13.2174 8.68271 13.2077 8.73263L12.4997 12.383C12.4452 11.9927 12.2799 11.6264 12.0234 11.3277C11.7379 11.041 11.3934 10.8202 11.014 10.6806C10.6345 10.5411 10.2293 10.4862 9.82659 10.5198H6.74905C6.69832 10.5198 6.64916 10.5374 6.61 10.5698C6.57083 10.6021 6.54409 10.6471 6.53436 10.697L5.10244 18.0859C5.09641 18.1176 5.09744 18.1502 5.10544 18.1814C5.11344 18.2127 5.12822 18.2418 5.14873 18.2666C5.16923 18.2915 5.19496 18.3115 5.22407 18.3253C5.25317 18.339 5.28495 18.3462 5.31713 18.3462H6.91781C6.96854 18.3462 7.0177 18.3285 7.05686 18.2962C7.09603 18.2639 7.12277 18.2189 7.1325 18.169L7.47899 16.3818H8.67726C9.20632 16.396 9.73441 16.3284 10.243 16.1816C10.6718 16.0393 11.0639 15.8038 11.3913 15.4917C11.6596 15.2467 11.8886 14.9617 12.0703 14.6467L11.7838 16.1235C11.7777 16.1552 11.7788 16.1878 11.7868 16.2191C11.7948 16.2503 11.8095 16.2794 11.83 16.3043C11.8506 16.3291 11.8763 16.3492 11.9054 16.3629C11.9345 16.3767 11.9663 16.3838 11.9984 16.3838H13.5961C13.6469 16.3838 13.696 16.3662 13.7352 16.3338C13.7744 16.3015 13.8011 16.2565 13.8108 16.2066L14.5967 12.1507H15.6891C16.1544 12.1507 16.2882 12.2438 16.3282 12.2839C16.3681 12.3239 16.428 12.4491 16.3531 12.8536L15.7191 16.1225C15.713 16.1542 15.7141 16.1868 15.7221 16.2181C15.7301 16.2493 15.7448 16.2784 15.7653 16.3033C15.7859 16.3281 15.8116 16.3482 15.8407 16.3619C15.8698 16.3757 15.9016 16.3828 15.9337 16.3828H17.5514C17.6012 16.3809 17.6488 16.3619 17.6864 16.3292C17.724 16.2964 17.7493 16.2518 17.7581 16.2026ZM10.3738 13.3652C10.325 13.7855 10.126 14.1739 9.81361 14.4585C9.42126 14.7032 8.96119 14.8158 8.50052 14.7799H7.78954L8.3038 12.1257H9.22347C9.89949 12.1257 10.1711 12.2709 10.2809 12.392C10.3647 12.5382 10.4164 12.7007 10.4324 12.8685C10.4484 13.0364 10.4284 13.2057 10.3738 13.3652ZM24.5692 11.3287C24.2837 11.042 23.9392 10.8212 23.5598 10.6816C23.1804 10.5421 22.7752 10.4872 22.3724 10.5208H19.2859C19.2352 10.5208 19.186 10.5384 19.1468 10.5708C19.1077 10.6031 19.0809 10.6481 19.0712 10.698L17.6393 18.0869C17.6333 18.1186 17.6343 18.1512 17.6423 18.1824C17.6503 18.2137 17.6651 18.2428 17.6856 18.2676C17.7061 18.2925 17.7318 18.3125 17.7609 18.3263C17.79 18.34 17.8218 18.3472 17.854 18.3472H19.4596C19.5104 18.3472 19.5595 18.3295 19.5987 18.2972C19.6379 18.2649 19.6646 18.2199 19.6743 18.17L20.0208 16.3828H21.2191C21.7482 16.397 22.2762 16.3294 22.7848 16.1826C23.2136 16.0403 23.6058 15.8048 23.9332 15.4927C24.4938 14.9861 24.8716 14.3078 25.0076 13.5634C25.115 13.1826 25.1313 12.7818 25.0552 12.3935C24.979 12.0052 24.8125 11.6404 24.5692 11.3287ZM22.9046 13.3652C22.8558 13.7855 22.6568 14.1739 22.3445 14.4585C21.9511 14.7035 21.4899 14.8158 21.0284 14.7789H20.3194L20.8336 12.1247H21.7533C22.4293 12.1247 22.7009 12.2699 22.8108 12.391C22.8949 12.5373 22.9468 12.6999 22.963 12.8679C22.9791 13.0359 22.9593 13.2055 22.9046 13.3652Z" fill="white"/>
<path d="M9.22347 11.9056C9.43891 11.8784 9.6576 11.8943 9.86688 11.9524C10.0762 12.0105 10.2719 12.1096 10.4427 12.244C10.5529 12.4142 10.6232 12.6072 10.6483 12.8086C10.6734 13.0099 10.6526 13.2143 10.5875 13.4064C10.5304 13.8795 10.3023 14.3151 9.94642 14.6309C9.51717 14.9081 9.00978 15.0381 8.50051 15.0014H7.52393L8.12306 11.9086L9.22347 11.9056ZM5.31213 18.1291H6.91781L7.29826 16.1648H8.67326C9.17938 16.1786 9.68459 16.1141 10.1711 15.9735C10.5704 15.8413 10.9353 15.6218 11.2395 15.3307C11.7661 14.8558 12.1208 14.2192 12.2481 13.5206C12.3489 13.1732 12.3666 12.8068 12.2998 12.4513C12.233 12.0957 12.0836 11.761 11.8636 11.4741C11.5985 11.2111 11.2793 11.0093 10.9283 10.8827C10.5774 10.7562 10.2031 10.7079 9.83159 10.7412H6.74905L5.31213 18.1291ZM13.4264 8.77588H15.0241L14.6376 10.7402H16.0566C16.7083 10.6718 17.363 10.8379 17.9039 11.2088C18.0829 11.4128 18.2053 11.6604 18.2587 11.9268C18.3122 12.1933 18.2949 12.4691 18.2085 12.7266L17.5424 16.1648H15.9258L16.5598 12.8958C16.604 12.7711 16.6197 12.638 16.6059 12.5063C16.5921 12.3746 16.5491 12.2477 16.48 12.1349C16.2487 11.9688 15.9631 11.8972 15.6811 11.9347H14.408L13.5871 16.1678H11.9895L13.4264 8.77588ZM21.7543 11.9056C21.9698 11.8784 22.1884 11.8943 22.3977 11.9524C22.607 12.0105 22.8027 12.1096 22.9735 12.244C23.0838 12.4142 23.1541 12.6072 23.1792 12.8086C23.2042 13.0099 23.1834 13.2143 23.1183 13.4064C23.0613 13.8795 22.8332 14.3151 22.4773 14.6309C22.0472 14.9088 21.5386 15.0388 21.0284 15.0014H20.0518L20.6509 11.9086L21.7543 11.9056ZM17.843 18.1291H19.4487L19.8291 16.1648H21.2041C21.7102 16.1786 22.2154 16.1141 22.7019 15.9735C23.1012 15.8413 23.4662 15.6218 23.7704 15.3307C24.297 14.8558 24.6517 14.2192 24.7789 13.5206C24.8797 13.1732 24.8974 12.8068 24.8306 12.4513C24.7638 12.0957 24.6144 11.761 24.3945 11.4741C24.1293 11.2111 23.8101 11.0093 23.4592 10.8827C23.1082 10.7562 22.7339 10.7079 22.3624 10.7412H19.2749L17.843 18.1291Z" fill="#000004"/>
</g>
<defs>
<radialGradient id="paint0_radial_108_88" cx="0" cy="0" r="1" gradientUnits="userSpaceOnUse" gradientTransform="translate(9.45115 9.21933) scale(18.3574 18.4061)">
<stop stop-color="white"/>
<stop offset="0.5" stop-color="#4C6B96"/>
<stop offset="1" stop-color="#231F20"/>
</radialGradient>
<clipPath id="clip0_108_88">
<rect width="29" height="28" fill="white"/>
</clipPath>
</defs>
</svg>

