<svg width="32" height="32" viewBox="0 0 32 32" fill="none" xmlns="http://www.w3.org/2000/svg">
<path d="M16 18.639C17.4728 18.639 18.6667 17.4451 18.6667 15.9723C18.6667 14.4996 17.4728 13.3057 16 13.3057C14.5273 13.3057 13.3333 14.4996 13.3333 15.9723C13.3333 17.4451 14.5273 18.639 16 18.639Z" fill="#00D8FF"/>
<path d="M16 22.0865C12.7948 22.164 9.59766 21.732 6.52801 20.8065C5.11001 20.357 3.78746 19.6489 2.62721 18.718C2.18447 18.3999 1.81577 17.9899 1.54641 17.516C1.27704 17.0421 1.11339 16.5155 1.06668 15.9724C1.06668 14.2092 3.00375 12.4812 6.24855 11.3505C9.40026 10.3486 12.6933 9.86307 16 9.91262C19.2626 9.86704 22.5115 10.3438 25.6235 11.3249C26.9891 11.7603 28.2668 12.4341 29.3973 13.3153C29.8325 13.6185 30.1957 14.0137 30.4611 14.4728C30.7266 14.932 30.8878 15.4439 30.9333 15.9724C30.9333 17.8049 28.768 19.662 25.28 20.8161C22.2698 21.7114 19.1401 22.1399 16 22.0865ZM16 11.1884C12.8364 11.1461 9.68623 11.6077 6.66775 12.5558C3.68108 13.598 2.34241 15.023 2.34241 15.9692C2.34241 16.959 3.78135 18.5153 6.94081 19.5958C9.87743 20.4767 12.9351 20.8868 16 20.8108C19.0042 20.8645 21.9989 20.458 24.88 19.6054C28.16 18.5185 29.6533 16.9601 29.6533 15.9724C29.5995 15.6334 29.476 15.3093 29.2906 15.0205C29.1051 14.7317 28.8618 14.4845 28.576 14.2945C27.5646 13.5128 26.4232 12.9155 25.2043 12.5302C22.2272 11.5956 19.12 11.1426 16 11.1884Z" fill="#00D8FF"/>
<path d="M9.94135 29.2725C9.44375 29.2839 8.95203 29.1632 8.51629 28.9226C6.98882 28.0416 6.45976 25.5008 7.10082 22.1248C7.80764 18.8939 9.03234 15.7987 10.7275 12.9589C12.3176 10.1099 14.3533 7.53375 16.7574 5.32797C17.8167 4.36232 19.0388 3.59202 20.367 3.05277C20.8473 2.82764 21.3714 2.71094 21.9019 2.71094C22.4324 2.71094 22.9564 2.82764 23.4368 3.05277C25.0251 3.96797 25.551 6.77117 24.8096 10.369C24.081 13.4246 22.8881 16.3503 21.2726 19.0442C19.7384 21.8596 17.7668 24.4133 15.4315 26.6101C14.3337 27.6136 13.0596 28.4053 11.6736 28.945C11.1188 29.151 10.5331 29.2617 9.94135 29.2725ZM11.8326 13.5925C10.2156 16.3118 9.04179 19.2711 8.35522 22.3594C7.76535 25.4688 8.33175 27.3386 9.15522 27.8144C10.0086 28.3082 12.08 27.84 14.5952 25.6426C16.8246 23.5381 18.7064 21.0935 20.1707 18.4C21.7184 15.8245 22.8626 13.0273 23.5638 10.1056C24.2614 6.7189 23.6587 4.6453 22.8032 4.1525C22.4826 4.02965 22.14 3.97466 21.797 3.991C21.454 4.00734 21.1182 4.09466 20.8107 4.24744C19.6285 4.73527 18.5416 5.42784 17.6 6.2933C15.3031 8.40615 13.3586 10.8724 11.84 13.5989L11.8326 13.5925Z" fill="#00D8FF"/>
<path d="M22.0555 29.2863C20.6102 29.2863 18.7744 28.4116 16.863 26.7679C14.4168 24.542 12.3467 21.9352 10.7328 19.0484C9.05893 16.2477 7.84393 13.1972 7.13389 10.0127C6.82595 8.61158 6.76889 7.167 6.96535 5.746C7.01077 5.21886 7.17129 4.7081 7.43557 4.24974C7.69986 3.79139 8.06149 3.39659 8.49495 3.0932C10.0811 2.1748 12.7723 3.1188 15.519 5.5572C17.8022 7.71419 19.7412 10.2086 21.2683 12.9535C22.9411 15.6888 24.1689 18.6724 24.9056 21.7929C25.2268 23.2454 25.2764 24.7448 25.0518 26.2153C24.9983 26.7576 24.8282 27.282 24.5532 27.7524C24.2781 28.2228 23.9046 28.6281 23.4582 28.9407C23.0295 29.1782 22.5454 29.2975 22.0555 29.2863ZM11.8368 18.4063C13.385 21.1651 15.3625 23.66 17.695 25.7972C20.0939 27.8612 21.9968 28.3049 22.815 27.8239C23.6683 27.3279 24.2976 25.3033 23.6491 22.0276C22.9386 19.0483 21.761 16.2003 20.16 13.5892C18.7028 10.9621 16.852 8.57358 14.672 6.50653C12.0864 4.21106 9.98935 3.698 9.13495 4.19293C8.86865 4.40934 8.65012 4.67861 8.49314 4.98374C8.33617 5.28888 8.24417 5.62324 8.22295 5.96573C8.05336 7.23302 8.1086 8.52029 8.38615 9.7684C9.06914 12.8139 10.2344 15.7307 11.8379 18.4084L11.8368 18.4063Z" fill="#00D8FF"/>
</svg>

